<?xml version="1.0" encoding="utf-8"?>
<!-- Generator: Adobe Illustrator 28.0.0, SVG Export Plug-In . SVG Version: 6.00 Build 0)  -->
<svg version="1.1" id="Capa_1" xmlns="http://www.w3.org/2000/svg" xmlns:xlink="http://www.w3.org/1999/xlink" x="0px" y="0px"
	 viewBox="0 0 1490.1 512" style="enable-background:new 0 0 1490.1 512;" xml:space="preserve">
<style type="text/css">
	.st0{fill:#FFFFFF;}
</style>
<g id="Layer_1">
</g>
<g id="Layer_1_00000096751034651438910950000008871210086213217965_">
</g>
<g>
	<g>
		<path d="M357.5,348.2c-29.5,0-53.5-9.6-72-28.9c-18.6-19.2-27.9-44.3-27.9-75.2c0-32.6,9.4-59,28.3-79.2s43.9-30.2,75.1-30.2
			c29.4,0,53.1,9.6,71.2,28.9s27.2,44.7,27.2,76.3c0,32.5-9.4,58.7-28.2,78.5C412.4,338.3,387.8,348.2,357.5,348.2z M358.4,309.2
			c16.6,0,29.7-5.9,39.3-17.6c9.6-11.7,14.4-28.1,14.4-49.1c0-21.8-4.7-38.7-14-50.8c-9.4-12.1-22.2-18.1-38.5-18.1
			c-16.6,0-29.8,6.2-39.7,18.6c-9.9,12.4-14.8,28.9-14.8,49.4c0,20.8,4.9,37.3,14.8,49.4C329.5,303.2,342.4,309.2,358.4,309.2z"/>
		<path d="M497,344.6V138.2h74c22.6,0,40.1,4.3,52.3,13s18.4,21,18.4,36.9c0,11-3.3,20.7-9.9,29c-6.6,8.3-15,14.1-25.4,17.5v0.6
			c13.3,1.7,24,7,31.9,15.8s11.9,19.5,11.9,32.2c0,18.8-6.8,33.8-20.3,44.8S598,344.6,575,344.6H497z M541.9,171.6v51.5h20.9
			c9.8,0,17.5-2.4,23.2-7.1c5.7-4.7,8.5-11.2,8.5-19.6s-2.9-14.6-8.6-18.7c-5.7-4.1-14.4-6.2-26-6.2h-18V171.6z M541.9,256.8v54.4
			h25.6c11.1,0,19.8-2.6,25.9-7.7c6.1-5.1,9.2-12.1,9.2-20.9c0-8.1-3.1-14.4-9.2-18.9c-6.1-4.6-14.8-6.8-25.9-6.8h-25.6V256.8z"/>
		<path d="M853.7,344.6h-51.1l-27.9-51.4c-4.5-8.3-9-14.6-13.5-18.9c-4.5-4.2-9.7-6.6-15.5-7.1h-13.2v77.3h-44.9V138.2h72.7
			c24.7,0,43.2,4.8,55.7,14.5s18.7,24.3,18.7,43.8c0,13.7-4,25.5-12,35.5c-8,9.9-19,17.3-32.9,22.1v0.6c5.9,1.9,11.5,5.8,16.8,11.7
			c5.2,5.9,9.7,12.2,13.3,18.8L853.7,344.6z M732.3,172.2v60.9h21c10.2,0,18.4-3.1,24.5-9.2c6.2-6.1,9.3-13.8,9.3-22.9
			c0-9.5-2.7-16.7-8.2-21.5s-13.7-7.3-24.8-7.3L732.3,172.2L732.3,172.2z"/>
		<path d="M1003.8,344.6H881V138.2h118v36.7h-73.1v47.5H994v36.7h-68.1V308h77.9L1003.8,344.6L1003.8,344.6z"/>
		<path d="M1040.2,344.6V138.2h72c36.7,0,64.1,8.4,82.5,25.1c18.3,16.7,27.5,41.9,27.5,75.5c0,32.1-10,57.8-30.1,77
			c-20.1,19.2-46.7,28.8-80,28.8L1040.2,344.6L1040.2,344.6z M1085.1,174.9V308h23.5c20.6,0,36.8-6.1,48.5-18.4
			c11.7-12.2,17.6-29,17.6-50.3c0-20.2-5.8-35.9-17.3-47.4c-11.5-11.4-27.8-17.1-48.8-17.1h-23.5V174.9z"/>
		<path d="M1346.5,348.2c-29.5,0-53.5-9.6-72-28.9c-18.6-19.2-27.9-44.3-27.9-75.2c0-32.6,9.4-59,28.3-79.2s43.9-30.2,75.1-30.2
			c29.4,0,53.1,9.6,71.2,28.9s27.2,44.7,27.2,76.3c0,32.5-9.4,58.7-28.2,78.5C1401.4,338.3,1376.8,348.2,1346.5,348.2z
			 M1347.4,309.2c16.6,0,29.7-5.9,39.3-17.6c9.6-11.7,14.4-28.1,14.4-49.1c0-21.8-4.7-38.7-14-50.8s-22.2-18.1-38.5-18.1
			c-16.6,0-29.8,6.2-39.7,18.6c-9.9,12.4-14.8,28.9-14.8,49.4c0,20.8,4.9,37.3,14.8,49.4C1318.6,303.2,1331.4,309.2,1347.4,309.2z"
			/>
	</g>
</g>
<path d="M182.5,277.3c26.9-11.5,42.5-34.2,42.5-65.2c0-46.3-34.5-75-89.7-75H45.9v39h47.8h2.8h36.1h4.7v0.1
	c26.1,1.4,39.3,14.4,39.3,35.9c0,14.6-6.2,25.4-18.6,31.2c-12.2,5.7-20.6,17.4-20.5,30.8v1.8c0.1,6.6,2.1,13.1,5.9,18.6l34,49.2
	h51.4L182.5,277.3z"/>
<polygon class="st0" points="132.6,176.1 45.9,176.1 45.9,137.1 132.9,137.1 "/>
<rect x="45.9" y="253" class="st0" width="87" height="39"/>
<polyline class="st0" points="93.7,300.6 93.7,277.4 93.7,233.5 93.7,172.6 45.9,172.6 45.9,343.7 93.7,343.7 "/>
</svg>
